{
    "accessors" : [
        {
            "bufferView" : 0,
            "componentType" : 5121,
            "count" : 6,
            "max" : [
                3
            ],
            "min" : [
                0
            ],
            "type" : "SCALAR"
        },
        {
            "bufferView" : 1,
            "componentType" : 5126,
            "count" : 4,
            "max" : [
                100.0,
                0.0,
                100.0
            ],
            "min" : [
                -100.0,
                0.0,
                -100.0
            ],
            "type" : "VEC3"
        },
        {
            "bufferView" : 2,
            "componentType" : 5126,
            "count" : 4,
            "max" : [
                0.0,
                1.0,
                -0.0
            ],
            "min" : [
                0.0,
                1.0,
                -0.0
            ],
            "type" : "VEC3"
        },
        {
            "bufferView" : 3,
            "componentType" : 5126,
            "count" : 4,
            "max" : [
                -1.0,
                0.0,
                -0.0,
                -1.0
            ],
            "min" : [
                -1.0,
                0.0,
                -0.0,
                -1.0
            ],
            "type" : "VEC4"
        },
        {
            "bufferView" : 4,
            "componentType" : 5126,
            "count" : 4,
            "max" : [
                0.3038443624973297,
                0.7921254336833954
            ],
            "min" : [
                0.2117806375026703,
                0.7000618875026703
            ],
            "type" : "VEC2"
        },
        {
            "bufferView" : 5,
            "componentType" : 5126,
            "count" : 4,
            "max" : [
                0.25691115856170654,
                0.6948482990264893
            ],
            "min" : [
                0.20971167087554932,
                0.645803302526474
            ],
            "type" : "VEC2"
        },
        {
            "bufferView" : 6,
            "componentType" : 5123,
            "count" : 43902,
            "max" : [
                30471
            ],
            "min" : [
                0
            ],
            "type" : "SCALAR"
        },
        {
            "bufferView" : 7,
            "componentType" : 5126,
            "count" : 30472,
            "max" : [
                27.05428695678711,
                15.824597358703613,
                6.069228172302246
            ],
            "min" : [
                -24.303035736083984,
                0.0015102624893188477,
                -14.752350807189941
            ],
            "type" : "VEC3"
        },
        {
            "bufferView" : 8,
            "componentType" : 5126,
            "count" : 30472,
            "max" : [
                1.0,
                1.0,
                1.0
            ],
            "min" : [
                -1.0,
                -1.0,
                -1.0
            ],
            "type" : "VEC3"
        },
        {
            "bufferView" : 9,
            "componentType" : 5126,
            "count" : 30472,
            "max" : [
                0.9989989995956421,
                0.9989989990135655
            ],
            "min" : [
                0.0010010009864345193,
                0.0010010004043579102
            ],
            "type" : "VEC2"
        },
        {
            "bufferView" : 10,
            "componentType" : 5126,
            "count" : 30472,
            "max" : [
                0.9989989995956421,
                0.9989989990135655
            ],
            "min" : [
                0.0010010009864345193,
                0.0010010004043579102
            ],
            "type" : "VEC2"
        }
    ],
    "asset" : {
        "generator" : "Khronos Blender glTF 2.0 exporter",
        "version" : "2.0"
    },
    "bufferViews" : [
        {
            "buffer" : 0,
            "byteLength" : 6,
            "byteOffset" : 0,
            "target" : 34963
        },
        {
            "buffer" : 0,
            "byteLength" : 48,
            "byteOffset" : 8,
            "target" : 34962
        },
        {
            "buffer" : 0,
            "byteLength" : 48,
            "byteOffset" : 56,
            "target" : 34962
        },
        {
            "buffer" : 0,
            "byteLength" : 64,
            "byteOffset" : 104,
            "target" : 34962
        },
        {
            "buffer" : 0,
            "byteLength" : 32,
            "byteOffset" : 168,
            "target" : 34962
        },
        {
            "buffer" : 0,
            "byteLength" : 32,
            "byteOffset" : 200,
            "target" : 34962
        },
        {
            "buffer" : 0,
            "byteLength" : 87804,
            "byteOffset" : 232,
            "target" : 34963
        },
        {
            "buffer" : 0,
            "byteLength" : 365664,
            "byteOffset" : 88036,
            "target" : 34962
        },
        {
            "buffer" : 0,
            "byteLength" : 365664,
            "byteOffset" : 453700,
            "target" : 34962
        },
        {
            "buffer" : 0,
            "byteLength" : 243776,
            "byteOffset" : 819364,
            "target" : 34962
        },
        {
            "buffer" : 0,
            "byteLength" : 243776,
            "byteOffset" : 1063140,
            "target" : 34962
        }
    ],
    "buffers" : [
        {
            "byteLength" : 1306916,
            "uri" : "KYJ02.bin"
        }
    ],
    "materials" : [
        {
            "name" : "cornellBox.default.000",
            "pbrMetallicRoughness" : {
                "baseColorFactor" : [
                    0.9551045298576355,
                    0.9551045298576355,
                    0.9551045298576355,
                    1.0
                ],
                "metallicFactor" : 0.0
            }
        }
    ],
    "meshes" : [
        {
            "name" : "Plane.001",
            "primitives" : [
                {
                    "attributes" : {
                        "NORMAL" : 2,
                        "POSITION" : 1,
                        "TANGENT" : 3,
                        "TEXCOORD_0" : 4,
                        "TEXCOORD_1" : 5
                    },
                    "indices" : 0,
                    "material" : 0
                }
            ]
        },
        {
            "name" : "ww",
            "primitives" : [
                {
                    "attributes" : {
                        "NORMAL" : 8,
                        "POSITION" : 7,
                        "TEXCOORD_0" : 9,
                        "TEXCOORD_1" : 10
                    },
                    "indices" : 6,
                    "material" : 0
                }
            ]
        }
    ],
    "nodes" : [
        {
            "name" : "Camera",
            "rotation" : [
                0.6173480153083801,
                -0.1586984246969223,
                0.12897072732448578,
                0.759646475315094
            ],
            "scale" : [
                1.0000001192092896,
                1.0,
                1.0
            ],
            "translation" : [
                -20.340002059936523,
                14.459999084472656,
                32.15999984741211
            ]
        },
        {
            "mesh" : 0,
            "name" : "ground",
            "scale" : [
                2.0,
                2.0,
                2.0
            ]
        },
        {
            "name" : "light",
            "rotation" : [
                0.37502333521842957,
                0.15325304865837097,
                -0.21668145060539246,
                0.8882117867469788
            ],
            "translation" : [
                0.85999995470047,
                17.235881805419922,
                15.388717651367188
            ]
        },
        {
            "mesh" : 1,
            "name" : "Plane"
        }
    ],
    "scene" : 0,
    "scenes" : [
        {
            "name" : "Scene",
            "nodes" : [
                1,
                3,
                2,
                0
            ]
        }
    ]
}
